<svg width="25" height="24" viewBox="0 0 25 24" fill="none" xmlns="http://www.w3.org/2000/svg">
<path d="M22.7118 15.0219L19.4952 12.9173L20.7337 10.6469C21.0324 10.0799 21.1889 9.44892 21.1897 8.80812V5.20882C21.1922 4.19677 20.8991 3.20602 20.3463 2.35824C19.7936 1.51046 19.0053 0.84254 18.0783 0.43651C17.1513 0.0304795 16.1258 -0.0959896 15.1279 0.0726321C14.13 0.241254 13.2031 0.697626 12.4609 1.38571L13.5481 2.55933C14.0624 2.08386 14.7042 1.76877 15.3949 1.65271C16.0856 1.53664 16.7951 1.62464 17.4365 1.90591C18.0779 2.18719 18.6233 2.64951 19.0059 3.2362C19.3884 3.82289 19.5914 4.50844 19.59 5.20882V8.80812C19.5898 9.18125 19.5005 9.54894 19.3293 9.88051L17.3839 13.4472L21.8359 16.3604C22.1298 16.5527 22.371 16.8154 22.5375 17.1246C22.704 17.4339 22.7906 17.7798 22.7894 18.1311V20.8058H19.1901V22.4055H24.3891V18.131C24.3907 17.5141 24.2381 16.9065 23.9452 16.3635C23.6523 15.8205 23.2283 15.3594 22.7118 15.0219Z" fill="#4DB5FF"/>
<path d="M16.2031 16.749L12.7571 14.6823L14.0838 12.4526C14.4038 11.8958 14.5715 11.2761 14.5724 10.6469V7.11219C14.5713 5.75736 13.9839 4.45824 12.9392 3.49985C11.8945 2.54146 10.4777 2.00207 8.99965 2C5.92994 2 3.4326 4.29335 3.4326 7.11219V10.6469C3.42933 11.2759 3.59515 11.8959 3.91541 12.4522L5.2494 14.694L1.82344 16.749C1.27074 17.0799 0.816927 17.532 0.503177 18.0644C0.189426 18.5968 0.0256735 19.1926 0.0267783 19.7977L0 24H18V19.8023C18.0017 19.1964 17.8382 18.5998 17.5244 18.0665C17.2106 17.5333 16.7564 17.0804 16.2031 16.749V16.749ZM16.2862 22.429H1.72377L1.74037 19.8023C1.73908 19.4574 1.83185 19.1176 2.01024 18.814C2.18864 18.5103 2.447 18.2523 2.76186 18.0634L7.51136 15.2146L5.41992 11.7C5.23862 11.3739 5.14485 11.0128 5.14641 10.6469V7.11219C5.14641 6.17475 5.55267 5.27569 6.27583 4.61281C6.99898 3.94994 7.97979 3.57754 9.00248 3.57754C10.0252 3.57754 11.006 3.94994 11.7291 4.61281C12.4523 5.27569 12.8586 6.17475 12.8586 7.11219V10.6469C12.8584 11.0133 12.7626 11.3744 12.5793 11.7L10.4951 15.2026L15.2647 18.0634C15.5795 18.2523 15.8379 18.5103 16.0163 18.814C16.1947 19.1177 16.2875 19.4574 16.2862 19.8023V22.429Z" fill="#4DB5FF"/>
</svg>
