<svg width="25" height="32" viewBox="0 0 25 32" fill="none" xmlns="http://www.w3.org/2000/svg">
<path d="M6.45922 22.6646C5.9161 22.1215 6.19922 22.2747 4.88924 21.924C4.29487 21.7647 3.77237 21.4584 3.29988 21.0915L0.464283 28.044C0.189911 28.7171 0.702405 29.4483 1.42865 29.4208L4.72174 29.2952L6.98672 31.6877C7.48671 32.2152 8.3642 32.0508 8.63857 31.3777L11.8917 23.4015C11.2142 23.779 10.4623 24.0003 9.68481 24.0003C8.46607 24.0003 7.32109 23.5259 6.45922 22.6646ZM24.314 28.044L21.4784 21.0915C21.0059 21.459 20.4835 21.7647 19.8891 21.924C18.5722 22.2765 18.861 22.1228 18.3191 22.6646C17.4572 23.5259 16.3116 24.0003 15.0929 24.0003C14.3154 24.0003 13.5635 23.7784 12.886 23.4015L16.1391 31.3777C16.4135 32.0508 17.2916 32.2152 17.791 31.6877L20.0566 29.2952L23.3497 29.4208C24.0759 29.4483 24.5884 28.7165 24.314 28.044ZM16.8266 21.2503C17.7816 20.2784 17.891 20.3622 19.251 19.9915C20.1191 19.7547 20.7978 19.0641 21.0303 18.1803C21.4978 16.4053 21.3766 16.6197 22.6522 15.321C23.2878 14.6741 23.5359 13.731 23.3034 12.8472C22.8366 11.0735 22.8359 11.321 23.3034 9.54541C23.5359 8.66166 23.2878 7.71855 22.6522 7.07168C21.3766 5.77294 21.4978 5.98669 21.0303 4.21234C20.7978 3.32859 20.1191 2.63798 19.251 2.4011C17.5085 1.92548 17.7185 2.04986 16.4416 0.750496C15.806 0.103628 14.8791 -0.149495 14.011 0.087378C12.2692 0.562373 12.5123 0.562998 10.7673 0.087378C9.89919 -0.149495 8.97232 0.103003 8.3367 0.750496C7.06109 2.04923 7.27109 1.92548 5.52798 2.4011C4.65986 2.63798 3.98112 3.32859 3.74862 4.21234C3.28175 5.98669 3.40238 5.77294 2.12677 7.07168C1.49115 7.71855 1.2424 8.66166 1.47552 9.54541C1.94239 11.3179 1.94302 11.0704 1.47552 12.8466C1.24302 13.7304 1.49115 14.6735 2.12677 15.321C3.40238 16.6197 3.28113 16.4053 3.74862 18.1803C3.98112 19.0641 4.65986 19.7547 5.52798 19.9915C6.92672 20.3728 7.03109 20.3128 7.95171 21.2503C8.77857 22.0922 10.0667 22.2428 11.0604 21.614C11.4578 21.3618 11.9188 21.2278 12.3895 21.2278C12.8602 21.2278 13.3211 21.3618 13.7185 21.614C14.7116 22.2428 15.9997 22.0922 16.8266 21.2503ZM6.49297 10.9979C6.49297 7.68355 9.13294 4.9967 12.3892 4.9967C15.6454 4.9967 18.2854 7.68355 18.2854 10.9979C18.2854 14.3122 15.6454 16.9991 12.3892 16.9991C9.13294 16.9991 6.49297 14.3122 6.49297 10.9979Z" fill="#4DB5FF"/>
</svg>
