<svg width="25" height="27" viewBox="0 0 25 27" fill="none" xmlns="http://www.w3.org/2000/svg">
<path d="M12.389 7.20011C13.0517 7.20011 13.589 6.66285 13.589 6.00011C13.589 5.33737 13.0517 4.80011 12.389 4.80011C11.7262 4.80011 11.189 5.33737 11.189 6.00011C11.189 6.66285 11.7262 7.20011 12.389 7.20011Z" fill="#4DB5FF"/>
<path d="M5.18896 19.2001H19.589V21.6001H5.18896V19.2001ZM9.98896 12.9961L13.3394 16.3489L18.0578 11.6269L19.589 13.2001V8.40009H14.789L16.361 9.93008L13.3382 12.9529L9.98896 9.60009L5.18896 14.4001L6.88576 16.0969L9.98896 12.9961Z" fill="#4DB5FF"/>
<path d="M20.7892 2.40008H16.8316C16.7137 2.22266 16.5855 2.05236 16.4476 1.89008L16.4356 1.87568C15.5539 0.848786 14.3134 0.197226 12.9676 0.054085C12.5854 -0.0186794 12.1929 -0.0186794 11.8108 0.054085C10.4649 0.197226 9.22443 0.848786 8.34276 1.87568L8.33076 1.89008C8.19285 2.05197 8.06462 2.22187 7.94676 2.39889V2.40008H3.98916C3.03467 2.40104 2.11955 2.78063 1.44463 3.45555C0.769704 4.13048 0.390113 5.0456 0.38916 6.00008V22.8001C0.390113 23.7546 0.769704 24.6697 1.44463 25.3446C2.11955 26.0195 3.03467 26.3991 3.98916 26.4001H20.7892C21.7436 26.3991 22.6588 26.0195 23.3337 25.3446C24.0086 24.6697 24.3882 23.7546 24.3892 22.8001V6.00008C24.3882 5.0456 24.0086 4.13048 23.3337 3.45555C22.6588 2.78063 21.7436 2.40104 20.7892 2.40008ZM21.9892 22.8001C21.9892 23.1183 21.8627 23.4236 21.6377 23.6486C21.4126 23.8737 21.1074 24.0001 20.7892 24.0001H3.98916C3.671 23.9998 3.36596 23.8732 3.14098 23.6483C2.91601 23.4233 2.78948 23.1182 2.78916 22.8001V6.00008C2.78948 5.68192 2.91601 5.37688 3.14098 5.15191C3.36596 4.92693 3.671 4.8004 3.98916 4.80008H9.44916C9.58687 4.12191 9.9548 3.5122 10.4906 3.07426C11.0264 2.63632 11.6971 2.39708 12.3892 2.39708C13.0812 2.39708 13.7519 2.63632 14.2877 3.07426C14.8235 3.5122 15.1915 4.12191 15.3292 4.80008H20.7892C21.1073 4.8004 21.4124 4.92693 21.6373 5.15191C21.8623 5.37688 21.9888 5.68192 21.9892 6.00008V22.8001Z" fill="#4DB5FF"/>
</svg>
